#!OML:ASF F:\twosubjects\two\wednesday\Session 1\rory1.ASF
:FULLY-SPECIFIED
:DEGREES
17
root 15.1386 18.2263 -6.0479 -71.5071 -84.1804 76.0236
lowerback 1.01925 2.01226 -8.64512
upperback 0.366358 2.53137 -2.10137
thorax -0.474382 1.24574 2.62136
lowerneck -9.82789 -7.20354 -7.52486
upperneck 20.7083 -10.4149 6.56615
head 8.824 -4.98755 2.29987
rclavicle -3.52097e-014 5.76476e-014
rhumerus -19.4699 -32.11 -60.9353
rradius 39.9309
rwrist -8.88944
rhand -23.2461 40.6816
rfingers 7.12502
rthumb 3.20542 10.726
lclavicle -3.52097e-014 5.76476e-014
lhumerus -34.5097 15.4384 71.6213
lradius 21.8239
lwrist -4.47823
lhand -23.8999 20.4272
lfingers 7.12502
lthumb 2.57407 50.3914
rfemur -28.2487 0.889983 10.3032
rtibia 45.3265
rfoot -10.5615 -13.532
rtoes 0.244895
lfemur -6.76102 0.0477448 -27.8354
ltibia 23.9972
lfoot -21.5053 3.8338
ltoes 9.12324
18
root 15.1036 18.235 -6.05993 -68.9467 -84.2004 73.6473
lowerback 0.934018 1.89801 -8.68912
upperback 0.324447 2.38884 -2.00436
thorax -0.460178 1.17664 2.75163
lowerneck -9.89727 -7.17309 -7.79864
upperneck 20.8154 -10.3865 6.81537
head 8.90074 -4.96941 2.42804
rclavicle -1.41634e-014 -1.03368e-014
rhumerus -18.0455 -31.6758 -61.3736
rradius 39.8763
rwrist -8.84026
rhand -23.7467 40.6659
rfingers 7.12502
rthumb 2.72203 10.7036
lclavicle -1.41634e-014 -1.03368e-014
lhumerus -34.465 15.3983 71.7989
lradius 21.908
lwrist -3.96786
lhand -24.1666 20.2109
lfingers 7.12502
lthumb 2.31644 50.1781
rfemur -28.4771 1.11631 10.4077
rtibia 43.9793
rfoot -10.1015 -13.5484
rtoes -0.29962
lfemur -6.72177 -0.36216 -27.6667
ltibia 23.7352
lfoot -21.5605 3.90497
ltoes 9.5917
19
root 15.0657 18.2454 -6.06547 -66.9045 -84.4069 71.5951
lowerback 1.07489 1.93643 -8.45061
upperback 0.269627 2.42917 -1.86064
thorax -0.596928 1.20549 2.76096
lowerneck -9.44412 -7.24508 -7.93576
upperneck 20.4396 -10.4616 6.82365
head 8.70355 -5.02759 2.46179
rclavicle -1.90088e-014 2.04748e-014
rhumerus -16.8775 -30.7631 -61.4807
rradius 39.9608
rwrist -9.63759
rhand -24.309 41.0491
rfingers 7.12502
rthumb 2.17889 11.0805
lclavicle -1.90088e-014 2.04748e-014
lhumerus -34.4633 15.23 72.0623
lradius 22.0193
lwrist -3.68698
lhand -23.852 20.1925
lfingers 7.12502
lthumb 2.62031 50.1561
rfemur -28.4567 1.53389 10.5957
rtibia 42.6142
rfoot -9.74393 -13.5557
rtoes 0.247769
lfemur -6.42167 -0.540618 -27.3576
ltibia 23.4349
lfoot -21.471 4.11912
ltoes 8.22272
20
root 15.0295 18.2478 -6.07027 -66.6915 -84.2117 71.3687
lowerback 1.25512 2.03182 -8.60291
upperback 0.274625 2.53157 -1.92532
thorax -0.708117 1.25944 2.7688
lowerneck -9.20317 -7.42256 -7.85816
upperneck 20.0962 -10.7043 6.81496
head 8.55804 -5.14327 2.4277
rclavicle -1.08586e-014 1.11319e-014
rhumerus -15.9147 -30.2565 -61.6108
rradius 40.4206
rwrist -10.2274
rhand -25.2017 41.0003
rfingers 7.12502
rthumb 1.31676 11.0246
lclavicle -1.08586e-014 1.11319e-014
lhumerus -34.2297 15.0381 72.2001
lradius 22.1739
lwrist -3.52744
lhand -23.5449 20.4035
lfingers 7.12502
lthumb 2.91688 50.3633
rfemur -28.455 1.97267 10.2529
rtibia 41.2108
rfoot -9.34857 -13.5952
rtoes 0.0753811
lfemur -6.14626 -0.287009 -27.5043
ltibia 23.1502
lfoot -21.4255 4.05466
ltoes 6.4881
21
root 14.9907 18.2447 -6.07326 -64.8496 -83.9639 69.6315
lowerback 1.26034 2.05288 -8.69762
upperback 0.354437 2.55899 -2.02941
thorax -0.630749 1.26657 2.71444
lowerneck -9.40833 -7.60314 -7.65567
upperneck 19.9916 -10.9555 6.78906
head 8.56735 -5.24117 2.34906
rclavicle 1.4561e-014 2.96189e-014
rhumerus -14.9037 -30.4363 -61.7509
rradius 40.826
rwrist -10.2978
rhand -25.4461 40.8406
rfingers 7.12502
rthumb 1.08075 10.8636
lclavicle 1.4561e-014 2.96189e-014
lhumerus -33.8594 14.7928 72.3317
lradius 22.3941
lwrist -3.38862
lhand -23.4702 20.1459
lfingers 7.12502
lthumb 2.989 50.1047
rfemur -28.5397 2.04597 9.9507
rtibia 39.7603
rfoot -9.08601 -13.4713
rtoes 0.412545
lfemur -6 -0.372729 -27.6519
ltibia 22.8688
lfoot -21.492 4.05105
ltoes 7.02763
22
root 14.9449 18.2423 -6.07636 -61.6072 -84.0082 66.4889
lowerback 1.22508 2.0369 -8.46894
upperback 0.392782 2.55042 -1.97347
thorax -0.562685 1.25988 2.64848
lowerneck -9.55177 -7.69901 -7.77565
upperneck 19.9634 -11.0852 6.93802
head 8.61078 -5.29147 2.3963
rclavicle -2.35808e-014 -1.68967e-014
rhumerus -13.9826 -29.5615 -61.6255
rradius 41.1607
rwrist -11.44
rhand -25.0811 40.8475
rfingers 7.12502
rthumb 1.43328 10.8725
lclavicle -2.35808e-014 -1.68967e-014
lhumerus -33.6835 14.165 72.7116
lradius 22.6972
lwrist -2.82242
lhand -23.5651 20.0394
lfingers 7.12502
lthumb 2.89735 49.9995
rfemur -28.5853 1.91481 10.0802
rtibia 38.2924
rfoot -8.90954 -13.1202
rtoes 1.88122
lfemur -5.77387 -0.803756 -27.4772
ltibia 22.5236
lfoot -21.4848 4.56531
ltoes 6.14163
23
root 14.901 18.2505 -6.08301 -59.4348 -84.09 64.4018
lowerback 1.25281 2.05978 -8.27742
upperback 0.362363 2.58261 -1.87924
thorax -0.609119 1.27994 2.63721
lowerneck -9.55677 -7.80872 -8.23735
upperneck 20.0482 -11.2506 7.30866
head 8.70508 -5.36791 2.57151
rclavicle -2.77802e-014 2.32578e-014
rhumerus -12.904 -28.9555 -61.6407
rradius 41.2238
rwrist -12.2397
rhand -24.8988 40.9845
rfingers 7.12502
rthumb 1.60929 11.0109
lclavicle -2.77802e-014 2.32578e-014
lhumerus -33.6047 13.3882 73.2042
lradius 22.9807
lwrist -2.22933
lhand -23.905 20.2875
lfingers 7.12502
lthumb 2.56911 50.2518
rfemur -28.6101 2.1877 10.1513
rtibia 36.801
rfoot -8.71181 -12.9394
rtoes 4.7474
lfemur -5.50392 -1.22911 -27.2836
ltibia 22.1289
lfoot -21.3808 5.17273
ltoes 2.89641
24
root 14.8608 18.2589 -6.08877 -58.6211 -83.9099 63.5827
lowerback 1.41291 2.1513 -8.33566
upperback 0.373718 2.68519 -1.92393
thorax -0.698842 1.33327 2.61409
lowerneck -9.45882 -8.0069 -8.33264
upperneck 20.0269 -11.5504 7.44734
head 8.72079 -5.50588 2.59867
rclavicle -2.87492e-014 -6.55989e-015
rhumerus -11.7414 -29.4284 -61.8518
rradius 41.1429
rwrist -11.9627
rhand -24.958 41.3066
rfingers 7.12502
rthumb 1.55218 11.3325
lclavicle -2.87492e-014 -6.55989e-015
lhumerus -33.3574 13.1832 73.4181
lradius 23.0951
lwrist -2.52759
lhand -23.9587 20.1269
lfingers 7.12502
lthumb 2.51723 50.0917
rfemur -28.5126 2.58429 9.86193
rtibia 35.2805
rfoot -8.14734 -12.9447
rtoes 6.50131
lfemur -5.1614 -1.23785 -27.3609
ltibia 21.727
lfoot -21.2636 5.30524
ltoes 0.905451
25
root 14.8151 18.2589 -6.09122 -57.8914 -83.5202 62.8028
lowerback 1.61737 2.21211 -8.48129
upperback 0.422382 2.73926 -2.05168
thorax -0.769712 1.35954 2.55378
lowerneck -9.44138 -8.17741 -8.34983
upperneck 19.9911 -11.8079 7.55163
head 8.73608 -5.61855 2.6041
rclavicle 1.37161e-014 -2.00773e-014
rhumerus -10.7083 -29.4208 -61.9814
rradius 41.2677
rwrist -12.1072
rhand -25.0132 41.5512
rfingers 7.12502
rthumb 1.49885 11.5768
lclavicle 1.37161e-014 -2.00773e-014
lhumerus -33.0811 13.3166 73.4574
lradius 23.2482
lwrist -2.66763
lhand -23.917 19.9909
lfingers 7.12502
lthumb 2.55756 49.9554
rfemur -28.3546 2.49625 9.48139
rtibia 33.7737
rfoot -6.87095 -12.7978
rtoes 3.84089
lfemur -4.72102 -1.02524 -27.635
ltibia 21.2442
lfoot -21.1558 5.08215
ltoes 1.92767
26
root 14.7638 18.2605 -6.09304 -55.5239 -83.2969 60.5723
lowerback 1.59795 2.15736 -8.34669
upperback 0.42476 2.67163 -2.06931
thorax -0.742124 1.32487 2.46459
lowerneck -9.52265 -8.28492 -8.79216
upperneck 19.9968 -11.9544 7.90798
head 8.81832 -5.68274 2.77059
rclavicle -3.22528e-014 9.74045e-015
rhumerus -9.52174 -29.039 -62.1196
rradius 41.3359
rwrist -12.9154
rhand -24.7912 41.6503
rfingers 7.12502
rthumb 1.71327 11.6774
lclavicle -3.22528e-014 9.74045e-015
lhumerus -32.9551 12.9587 73.6988
lradius 23.6072
lwrist -2.06388
lhand -23.8641 19.7038
lfingers 7.12502
lthumb 2.60863 49.6676
rfemur -28.3752 2.49963 9.30321
rtibia 32.3264
rfoot -5.82889 -12.7244
rtoes 1.86285
lfemur -4.40771 -0.841146 -27.6511
ltibia 20.6174
lfoot -20.8513 4.91275
ltoes 1.79315
27
root 14.7139 18.27 -6.09774 -52.193 -83.2496 57.4495
lowerback 1.48664 2.07646 -8.06026
upperback 0.375568 2.58135 -2.0256
thorax -0.710493 1.28121 2.35776
lowerneck -9.33253 -8.34367 -8.95517
upperneck 19.8226 -12.0335 8.03355
head 8.75047 -5.72685 2.83688
rclavicle 0 -1.88845e-014
rhumerus -8.36766 -28.7737 -62.3277
rradius 41.3358
rwrist -13.6735
rhand -24.6004 41.5168
rfingers 7.12502
rthumb 1.89751 11.5455
lclavicle 0 -1.88845e-014
lhumerus -32.8546 12.3716 73.9852
lradius 23.879
lwrist -1.73792
lhand -23.439 19.4916
lfingers 7.12502
lthumb 3.01919 49.4499
rfemur -28.4263 2.97861 9.19855
rtibia 30.8935
rfoot -5.50635 -12.8931
rtoes 4.59586
lfemur -4.19329 -0.44326 -27.3779
ltibia 19.9821
lfoot -20.4281 4.54729
ltoes 0.368165
